{"title":"Nema-ya Nazdik / Close Up (Abbas Kiarostami, 1990)","uid":9248205,"size":1972317341,"categoryP":"video","categoryS":"movies","magnet":"?xt=urn:btih:27ba48b9d3cfdecad253864514d363eb73d59463&amp;dn=Nema-ya+Nazdik+%2F+Close+Up+%28Abbas+Kiarostami%2C+1990%29&amp;tr=udp%3A%2F%2Ftracker.openbittorrent.com%3A80&amp;tr=udp%3A%2F%2Fopen.demonii.com%3A1337&amp;tr=udp%3A%2F%2Ftracker.coppersurfer.tk%3A6969&amp;tr=udp%3A%2F%2Fexodus.desync.com%3A6969","seeders":21,"leechers":2,"uploader":"moonflux","files":1,"time":1385411425,"description":" Pretending to be Mohsen Makhmalbaf making his next movie, Ali Sabzian enters a well-to-do family in Teheran. The actual people involved in the incident re-enact the actual events, followed by the footage from the actual trial that took place. \n\nGeneral\nUnique ID : 217929481494854778086935571080473771829 (0xA3F3B100BDF5AF43A8129BDCAD9C7F35)\nComplete name : Nema-ye Nazdik (aka Close-Up) (1990-DVD-x264).mkv\nFormat : Matroska\nFormat version : Version 2\nFile size : 1.84 GiB\nDuration : 1h 37mn\nOverall bit rate : 2 683 Kbps\nEncoded date : UTC 2011-04-10 15:32:09\nWriting application : mkvmerge v4.6.0 ('Still Crazy After All These Years') built on Mar 10 2011 02:50:32\nWriting library : libebml v1.2.0 + libmatroska v1.1.0\n\nVideo\nID : 1\nFormat : AVC\nFormat/Info : Advanced Video Codec\nFormat profile : &lt;a class=&quot;__cf_email__&quot; href=&quot;/cdn-cgi/l/email-protection&quot; data-cfemail=&quot;5018393738101c637e62&quot;&gt;[email&amp;#160;protected]&lt;/a&gt;&lt;script cf-hash='f9e31' type=&quot;text/javascript&quot;&gt;\n/* &lt;![CDATA[ */!function(){try{var t=&quot;currentScript&quot;in document?document.currentScript:function(){for(var t=document.getElementsByTagName(&quot;script&quot;),e=t.length;e--;)if(t[e].getAttribute(&quot;cf-hash&quot;))return t[e]}();if(t&amp;&amp;t.previousSibling){var e,r,n,i,c=t.previousSibling,a=c.getAttribute(&quot;data-cfemail&quot;);if(a){for(e=&quot;&quot;,r=parseInt(a.substr(0,2),16),n=2;a.length-n;n+=2)i=parseInt(a.substr(n,2),16)^r,e+=String.fromCharCode(i);e=document.createTextNode(e),c.parentNode.replaceChild(e,c)}}}catch(u){}}();/* ]]&gt; */&lt;/script&gt;\nFormat settings, CABAC : Yes\nFormat settings, ReFrames : 16 frames\nCodec ID : V_MPEG4/ISO/AVC\nDuration : 1h 37mn\nBit rate : 2 378 Kbps\nWidth : 664 pixels\nHeight : 446 pixels\nDisplay aspect ratio : 4:3\nOriginal display aspect ratio : 4:3\nFrame rate : 23.976 fps\nColor space : YUV\nChroma subsampling : 4:2:0\nBit depth : 8 bits\nScan type : Progressive\nBits/(Pixel*Frame) : 0.335\nStream size : 1.63 GiB (89%)\nTitle : Nema-ye Nazdik (aka Close-Up)\nWriting library : x264 core 114 r1924 08d04a4\nEncoding settings : cabac=1 / ref=16 / deblock=1:-3:-3 / analyse=0x3:0x133 / me=umh / subme=10 / psy=1 / psy_rd=1.00:0.00 / mixed_ref=1 / me_range=48 / chroma_me=1 / trellis=2 / 8x8dct=1 / cqm=0 / deadzone=21,11 / fast_pskip=0 / chroma_qp_offset=-2 / threads=3 / sliced_threads=0 / nr=0 / decimate=1 / interlaced=0 / constrained_intra=0 / bframes=11 / b_pyramid=2 / b_adapt=2 / b_bias=0 / direct=3 / weightb=1 / open_gop=0 / weightp=2 / keyint=250 / keyint_min=23 / scenecut=40 / intra_refresh=0 / rc_lookahead=250 / rc=crf / mbtree=1 / crf=17.9 / qcomp=0.60 / qpmin=0 / qpmax=69 / qpstep=4 / ip_ratio=1.40 / aq=2:1.00\nLanguage : Persian\n\nAudio #1\nID : 2\nFormat : AC-3\nFormat/Info : Audio Coding 3\nMode extension : CM (complete main)\nCodec ID : A_AC3\nDuration : 1h 37mn\nBit rate mode : Constant\nBit rate : 192 Kbps\nChannel(s) : 1 channel\nChannel positions : Front: C\nSampling rate : 48.0 KHz\nBit depth : 16 bits\nCompression mode : Lossy\nStream size : 135 MiB (7%)\nTitle : Nema-ye Nazdik (aka Close-Up)\nLanguage : Persian\n\nAudio #2\nID : 3\nFormat : Vorbis\nFormat settings, Floor : 1\nCodec ID : A_VORBIS\nDuration : 1h 37mn\nBit rate mode : Variable\nBit rate : 60.0 Kbps\nChannel(s) : 1 channel\nSampling rate : 48.0 KHz\nCompression mode : Lossy\nStream size : 42.1 MiB (2%)\nTitle : Commentary (w. Mehrnaz Saeed-Vafa &amp; Jonathan Rosenbaum)\nWriting library : libVorbis (Schaufenugget) (20101101 (Schaufenugget))\nLanguage : English\n\nText\nID : 4\nFormat : UTF-8\nCodec ID : S_TEXT/UTF8\nCodec ID/Info : UTF-8 Plain Text\nTitle : English subtitles\nLanguage : English","torrent":{"xt":"urn:btih:27ba48b9d3cfdecad253864514d363eb73d59463","amp;dn":"Nema-ya+Nazdik+%2F+Close+Up+%28Abbas+Kiarostami%2C+1990%29","amp;tr":["udp%3A%2F%2Ftracker.openbittorrent.com%3A80","udp%3A%2F%2Fopen.demonii.com%3A1337","udp%3A%2F%2Ftracker.coppersurfer.tk%3A6969","udp%3A%2F%2Fexodus.desync.com%3A6969"],"infoHash":"27ba48b9d3cfdecad253864514d363eb73d59463","infoHashBuffer":{"type":"Buffer","data":[39,186,72,185,211,207,222,202,210,83,134,69,20,211,99,235,115,213,148,99]},"announce":[],"urlList":[]}}